<svg width="37" height="47" viewBox="0 0 37 47" fill="none" xmlns="http://www.w3.org/2000/svg">
<path d="M32.9926 20.7276C32.7268 21.2451 32.4906 21.7416 32.2324 22.227C32.121 22.4363 31.9594 22.6198 31.8285 22.82C31.4952 23.3299 31.1558 23.8366 30.8384 24.356C30.5197 24.8776 30.2252 25.4132 29.919 25.9421C29.5668 26.5505 29.2539 27.1853 28.8506 27.7596C28.293 28.5536 27.6688 29.3003 26.7616 29.7613C26.0389 30.1286 25.3407 30.5444 24.6051 30.8838C24.2654 31.0406 23.8626 31.1391 23.4878 31.1407C19.4248 31.1586 15.3617 31.1563 11.2986 31.1437C10.9739 31.1427 10.6231 31.0803 10.3301 30.9492C9.47688 30.5675 8.5404 30.2624 7.83368 29.6939C6.87624 28.9238 6.03325 28.0009 5.44373 26.8867C4.9271 25.9102 4.31474 24.9823 3.7567 24.0262C3.47089 23.5366 3.22609 23.024 2.93629 22.5367C2.58044 21.9385 2.19549 21.3567 1.82581 20.7663C1.46649 20.1923 1.086 19.6291 0.76237 19.0365C0.568596 18.6817 0.448712 18.2846 0.327297 17.897C0.198411 17.4857 0.0417107 17.0671 0.0144809 16.6445C-0.0265951 16.0069 0.0301942 15.363 0.0553757 14.7221C0.0597349 14.6112 0.146825 14.4998 0.139065 14.3926C0.0877792 13.6837 0.383481 13.0511 0.689922 12.4612C1.19369 11.4914 1.81849 10.5819 2.37983 9.63998C2.93582 8.70701 3.47587 7.76499 4.02396 6.82753C4.47784 6.05123 4.92907 5.27342 5.38943 4.50079C5.70236 3.97559 6.02559 3.45611 6.35223 2.93889C6.42414 2.82502 6.52037 2.72134 6.62185 2.63043C7.02762 2.26693 7.41296 1.87394 7.85712 1.56116C8.32313 1.23297 8.83492 0.958752 9.351 0.708682C9.76077 0.51013 10.2071 0.383449 10.6374 0.22525C10.6783 0.210193 10.7195 0.189763 10.762 0.185572C11.3692 0.125706 11.9764 0.0207942 12.584 0.0179997C15.997 0.00229815 19.4104 -0.0176288 22.8228 0.02894C23.897 0.0436001 24.9085 0.442889 25.8525 0.957651C26.7317 1.43708 27.5964 1.95221 28.2017 2.75414C28.7044 3.41998 29.1325 4.14042 29.5771 4.84658C29.977 5.48187 30.3562 6.1297 30.7413 6.77381C30.9806 7.1741 31.2126 7.57855 31.4504 7.97975C31.8564 8.66506 32.2691 9.34672 32.6705 10.0346C33.2017 10.945 33.7486 11.8481 34.2388 12.7793C34.4163 13.1164 34.4212 13.5356 34.5546 13.9C34.8783 14.7845 34.7141 15.6953 34.7013 16.5895C34.6933 17.14 34.5495 17.7214 34.3244 18.2288C33.9472 19.0785 33.4563 19.8801 32.9926 20.7276ZM31.817 15.0241C32.3013 15.0241 32.7856 15.0241 33.2959 15.0241C33.2302 14.0967 32.936 13.281 32.4753 12.5155C30.8627 9.83576 29.2816 7.13731 27.6286 4.48146C26.4144 2.53062 24.578 1.53593 22.2313 1.48131C21.3162 1.46001 20.4001 1.47696 19.4844 1.47816C17.0033 1.48142 14.522 1.46556 12.0414 1.49907C11.0246 1.5128 10.1049 1.89291 9.21051 2.43857C9.51497 2.85226 9.78829 3.22363 10.0664 3.653C12.4357 7.12921 14.8264 10.592 17.1564 14.0931C17.6178 14.7863 18.0831 15.0409 18.9462 15.0302C23.2096 14.9775 27.4742 15.0108 31.817 15.0241ZM9.13227 4.61103C8.83929 4.12467 8.54631 3.63831 8.19212 3.05034C7.80226 3.57261 7.4455 3.97639 7.17257 4.42836C5.54916 7.11682 3.92148 9.80331 2.34228 12.5165C1.13417 14.5922 1.11836 16.7072 2.34723 18.7966C3.19073 20.2308 4.04716 21.6578 4.90338 23.0848C5.73712 24.4744 6.55815 25.8718 7.42442 27.2419C7.82601 27.877 8.40544 28.3669 9.08657 28.8019C9.35792 28.2879 9.60605 27.818 9.90339 27.3201C10.2903 26.6736 10.6809 26.0292 11.0636 25.3803C12.9121 22.2452 14.7615 19.1107 16.5957 15.9676C16.6768 15.8287 16.6889 15.5589 16.6038 15.4337C14.2055 11.9015 11.7911 8.37976 9.3744 4.85951C9.31963 4.77972 9.20805 4.73705 9.13227 4.61103ZM31.5514 16.2539C27.1052 16.2501 22.6589 16.2428 18.2128 16.256C18.04 16.2565 17.7959 16.4127 17.706 16.5645C15.4461 20.3806 13.2023 24.206 10.9154 28.074C10.6686 28.4934 10.4218 28.9128 10.1012 29.4576C10.9576 29.5866 11.7323 29.7952 12.5095 29.8042C15.759 29.842 19.0097 29.8552 22.259 29.8078C24.6296 29.7732 26.477 28.7338 27.718 26.7456C28.4695 25.5417 29.182 24.3146 29.9043 23.0935C30.8771 21.449 31.876 19.8178 32.7924 18.1436C33.0992 17.583 33.1871 16.9084 33.4028 16.1941C32.7145 16.2281 32.1732 16.2549 31.5514 16.2539Z" fill="#29312E"/>
<path d="M27.1606 36.5276C27.5688 35.4738 28.4395 34.9283 29.416 34.6613C30.3412 34.4082 31.2711 34.6115 32.0317 35.3002C32.5414 35.7616 32.8796 36.3288 33.2226 36.9017C33.5198 37.3982 33.8469 37.8778 34.1415 38.3757C34.6471 39.2302 35.13 40.0976 35.6372 40.9512C35.9813 41.5304 36.3982 42.0729 36.6954 42.6729C37.0089 43.3057 37.0839 43.9501 36.904 44.7013C36.6192 45.8908 35.7669 46.4424 34.7814 46.8621C33.8756 47.2478 32.3782 46.7749 31.8107 46.0032C31.3892 45.4301 31.021 44.8194 30.6348 44.222C30.118 43.4227 29.591 42.6291 29.0977 41.8161C28.6039 41.0024 28.1479 40.1669 27.6712 39.3432C27.5461 39.127 27.3824 38.9298 27.2767 38.7058C26.9479 38.0093 27.1235 37.2745 27.1606 36.5276Z" fill="#272F2C"/>
<path d="M30.2079 29.2475C30.689 28.8566 31.2156 28.7937 31.686 29.0993C31.9896 29.2965 32.2633 29.6394 32.39 29.9747C32.7463 30.9182 32.6179 31.1887 31.7282 31.719C30.8622 32.2353 29.9921 32.7452 29.1194 33.2506C28.4006 33.6668 27.6783 34.0775 26.9521 34.4814C26.0101 35.0052 25.0631 35.5204 24.1175 36.0383C23.6066 36.3181 23.0513 36.2918 22.6337 35.9637C22.3207 35.7178 22.1046 35.2886 21.9787 34.8999C21.8458 34.4896 22.0026 34.0753 22.3827 33.7949C22.7875 33.4962 23.182 33.1795 23.6123 32.92C24.079 32.6386 24.5903 32.4286 25.0667 32.1614C25.6943 31.8092 26.3047 31.428 26.9267 31.0662C27.3764 30.8046 27.8314 30.5515 28.2869 30.2994C28.9159 29.9512 29.5475 29.6074 30.2079 29.2475Z" fill="#272F2C"/>
<path d="M10.9556 28.0294C13.2022 24.2057 15.4459 20.3804 17.7058 16.5642C17.7957 16.4124 18.0398 16.2562 18.2126 16.2557C22.6587 16.2426 27.105 16.2499 31.594 16.301C31.5185 16.6408 31.4355 16.9532 31.2764 17.2227C29.4407 20.3307 27.6009 23.4364 25.7451 26.5329C25.1511 27.524 24.258 28.0712 23.0529 28.0676C19.0205 28.0554 14.988 28.0422 10.9556 28.0294Z" fill="#307F60"/>
<path d="M9.12279 4.67578C9.20787 4.73577 9.31944 4.77844 9.37422 4.85823C11.7909 8.37848 14.2053 11.9002 16.6036 15.4324C16.6887 15.5576 16.6766 15.8274 16.5955 15.9664C14.7614 19.1094 12.9119 22.244 11.0634 25.379C10.6808 26.0279 10.2901 26.6724 9.84549 27.3307C9.53357 27.0502 9.23045 26.786 9.03323 26.4607C7.93169 24.6437 6.85483 22.8125 5.77347 20.9839C5.71017 20.8769 5.68131 20.7505 5.64395 20.6011C5.75619 20.5201 5.86543 20.4785 5.96477 20.4207C6.31563 20.2166 6.41196 19.8997 6.32426 19.5346C6.23564 19.1657 5.94 18.9574 5.58493 18.9891C5.31976 19.0127 5.07073 19.2087 4.78936 19.3055C4.63832 19.0626 4.51243 18.8422 4.41543 18.6066C5.20705 18.3015 5.374 17.7552 4.86046 17.1528C4.05498 16.2079 3.98687 15.1577 4.46969 14.0875C4.72354 13.5248 4.8536 13.0307 4.47645 12.4629C5.95963 9.90043 7.44865 7.37043 8.9414 4.84253C8.98111 4.77528 9.06141 4.73085 9.12279 4.67578Z" fill="#307F60"/>
<path d="M31.7384 15.0141C27.4743 15.0111 23.2097 14.9778 18.9463 15.0305C18.0831 15.0412 17.6178 14.7866 17.1565 14.0934C14.8265 10.5923 12.4358 7.12951 10.0884 3.60179C10.6052 3.40647 11.0919 3.21479 11.5973 3.13308C12.052 3.05955 12.5273 3.10665 12.9974 3.13383C13.0041 3.18928 13.0069 3.21144 13.012 3.26741C13.0209 3.38716 13.0087 3.47948 13.0367 3.55815C13.502 4.86439 14.2748 5.97457 15.3418 6.87768C15.4988 7.01058 15.7932 6.98898 16.0241 7.03887C16.0307 6.82062 16.0613 6.59965 16.0357 6.38507C16.0175 6.23332 15.9198 6.09148 15.8636 5.94307C15.6896 5.48415 15.492 5.03162 15.354 4.56251C15.2218 4.11338 15.4347 3.82286 15.904 3.7697C16.6057 3.69022 17.2444 3.85359 17.6874 4.4165C18.1265 4.97466 18.5266 5.56421 18.9145 6.15821C19.8901 7.65209 20.8492 9.15625 21.8148 10.6563C22.0277 10.987 22.1473 11.323 21.9652 11.7151C21.6417 12.4118 21.7451 12.6107 22.5037 12.8003C22.6607 12.8396 22.8208 12.87 22.9811 12.8936C24.4627 13.112 25.9512 13.1431 27.4379 12.9792C27.7446 12.9454 28.032 12.7457 28.3283 12.6225C28.1034 12.4122 27.9114 12.1429 27.6474 12.0029C26.8895 11.6014 26.2657 11.0846 25.8083 10.3634C24.8296 8.82045 23.8274 7.29179 22.8457 5.75068C22.5893 5.34816 22.342 4.93466 22.1466 4.50208C21.9448 4.05519 22.0926 3.86233 22.5986 3.82694C23.1825 3.78609 23.7369 3.91957 24.1683 4.29773C24.6814 4.74747 25.1343 5.26235 25.6154 5.74702C26.1315 6.26697 26.4875 6.96327 27.2837 7.2018C27.3065 7.23914 27.3245 7.25616 27.3543 7.29983C27.9558 8.34096 28.562 9.34463 29.1401 10.3635C30.0165 11.9081 30.8733 13.4634 31.7384 15.0141Z" fill="#307F60"/>
<path d="M10.9354 28.0511C14.9881 28.0417 19.0206 28.0549 23.053 28.0671C24.258 28.0707 25.1512 27.5236 25.7452 26.5324C27.601 23.4359 29.4408 20.3302 31.2764 17.2222C31.4356 16.9527 31.5186 16.6404 31.6344 16.3144C32.1731 16.2541 32.7143 16.2274 33.4027 16.1934C33.187 16.9076 33.0991 17.5823 32.7922 18.1429C31.8759 19.817 30.877 21.4482 29.9042 23.0928C29.1818 24.3138 28.4694 25.541 27.7179 26.7449C26.4769 28.733 24.6295 29.7725 22.2589 29.807C19.0096 29.8544 15.7589 29.8412 12.5094 29.8035C11.7322 29.7945 10.9575 29.5858 10.1011 29.4569C10.4217 28.912 10.6685 28.4926 10.9354 28.0511Z" fill="#FBFCFC"/>
<path d="M9.12741 4.64449C9.06138 4.73257 8.98108 4.777 8.94137 4.84425C7.44862 7.37215 5.9596 9.90215 4.43751 12.4737C3.90448 12.3818 3.47708 12.446 3.16338 12.9045C2.26628 14.2159 2.266 16.4483 3.17488 17.7549C3.47269 18.183 3.82752 18.54 4.38651 18.6235C4.5124 18.8439 4.63829 19.0643 4.78796 19.343C4.7146 19.8101 4.77706 20.1698 5.16728 20.4103C5.31368 20.5005 5.47945 20.5608 5.63638 20.6348C5.68128 20.7522 5.71014 20.8786 5.77344 20.9856C6.8548 22.8142 7.93166 24.6454 9.0332 26.4624C9.23042 26.7877 9.53354 27.0519 9.82087 27.3464C9.60584 27.8184 9.3577 28.2884 9.08636 28.8023C8.40523 28.3673 7.82579 27.8774 7.4242 27.2423C6.55794 25.8722 5.7369 24.4748 4.90316 23.0853C4.04695 21.6582 3.19051 20.2313 2.34701 18.7971C1.11814 16.7077 1.13395 14.5926 2.34207 12.517C3.92127 9.80375 5.54894 7.11726 7.17236 4.42881C7.44528 3.97683 7.80205 3.57305 8.1919 3.05078C8.54609 3.63875 8.83908 4.12511 9.12741 4.64449Z" fill="#FCFCFC"/>
<path d="M12.9933 3.10032C12.5271 3.10643 12.0519 3.05933 11.5972 3.13286C11.0918 3.21457 10.605 3.40625 10.0859 3.57256C9.78823 3.2237 9.51491 2.85233 9.21045 2.43864C10.1048 1.89298 11.0246 1.51287 12.0413 1.49914C14.5219 1.46563 17.0033 1.48149 19.4844 1.47823C20.4 1.47703 21.3161 1.46008 22.2312 1.48138C24.578 1.536 26.4143 2.53069 27.6285 4.48153C29.2815 7.13738 30.8626 9.83583 32.4753 12.5156C32.9359 13.2811 33.2302 14.0967 33.2959 15.0241C32.7855 15.0241 32.3012 15.0241 31.7776 15.019C30.8731 13.4631 30.0163 11.9079 29.1399 10.3633C28.5618 9.34441 27.9556 8.34074 27.3868 7.29122C27.7346 7.188 27.7799 6.94734 27.6723 6.72566C27.4301 6.22666 27.1391 5.75018 26.8544 5.2413C26.8034 5.15698 26.7658 5.0959 26.7316 5.00844C26.6878 4.93349 26.6407 4.88492 26.584 4.82047C26.5744 4.80459 26.5534 4.77401 26.5546 4.74369C26.3293 4.43905 26.1027 4.16474 25.8581 3.8675C25.6477 3.67667 25.4553 3.50877 25.252 3.31375C25.0287 3.19736 24.8207 3.04394 24.6031 3.02973C23.5696 2.96221 22.5334 2.93262 21.4585 2.88774C21.1242 2.88299 20.8296 2.88001 20.5033 2.86107C18.7013 2.83659 16.9311 2.827 15.1609 2.82246C15.0629 2.82221 14.9648 2.86395 14.8278 2.8871C14.582 2.88937 14.3751 2.89068 14.1295 2.8777C13.7251 2.94238 13.3592 3.02135 12.9933 3.10032Z" fill="#FBFCFC"/>
<path d="M4.41571 18.6088C3.82783 18.5405 3.473 18.1835 3.17519 17.7554C2.26631 16.4489 2.26658 14.2164 3.16369 12.905C3.47739 12.4465 3.90479 12.3823 4.44416 12.507C4.85388 13.0329 4.72382 13.5271 4.46996 14.0897C3.98714 15.1599 4.05526 16.2102 4.86073 17.155C5.37428 17.7574 5.20732 18.3037 4.41571 18.6088Z" fill="#2B3330"/>
<path d="M5.64409 20.6015C5.47961 20.5595 5.31385 20.4992 5.16745 20.409C4.77722 20.1685 4.71477 19.8088 4.81328 19.3642C5.07087 19.2091 5.3199 19.0131 5.58506 18.9895C5.94013 18.9579 6.23577 19.1661 6.32439 19.535C6.4121 19.9002 6.31576 20.217 5.9649 20.4211C5.86557 20.4789 5.75633 20.5205 5.64409 20.6015Z" fill="#2B3330"/>
<path d="M25.2627 3.3408C25.4551 3.5087 25.6476 3.6766 25.8584 3.8973C26.1024 4.22471 26.3278 4.49932 26.5532 4.77394C26.5532 4.77394 26.5742 4.80452 26.5799 4.84691C26.6331 4.93778 26.6806 4.98626 26.7281 5.03475C26.7656 5.09583 26.8032 5.15691 26.8511 5.27248C27.0754 5.77968 27.2923 6.23102 27.5018 6.68564C27.6134 6.92784 27.5399 7.1008 27.2745 7.18519C26.4871 6.96298 26.1312 6.26668 25.6151 5.74672C25.134 5.26205 24.681 4.74717 24.1679 4.29743C23.7365 3.91927 23.1822 3.7858 22.5983 3.82664C22.0922 3.86204 21.9445 4.0549 22.1463 4.50178C22.3417 4.93436 22.5889 5.34786 22.8453 5.75038C23.827 7.29149 24.8293 8.82015 25.8079 10.3631C26.2654 11.0843 26.8892 11.6011 27.647 12.0027C27.9111 12.1426 28.1031 12.4119 28.328 12.6222C28.0317 12.7454 27.7442 12.9451 27.4376 12.9789C25.9509 13.1428 24.4624 13.1117 22.9808 12.8933C22.8204 12.8697 22.6604 12.8393 22.5034 12.8C21.7448 12.6104 21.6414 12.4115 21.9649 11.7148C22.147 11.3227 22.0273 10.9867 21.8145 10.656C20.8488 9.15595 19.8898 7.6518 18.9142 6.15791C18.5263 5.56391 18.1262 4.97436 17.687 4.4162C17.2441 3.85329 16.6054 3.68993 15.9037 3.7694C15.4344 3.82257 15.2215 4.11309 15.3536 4.56221C15.4917 5.03133 15.6893 5.48385 15.8632 5.94277C15.9195 6.09118 16.0172 6.23303 16.0353 6.38477C16.061 6.59935 16.0303 6.82033 16.0237 7.03857C15.7929 6.98869 15.4985 7.01029 15.3415 6.87739C14.2745 5.97427 13.5016 4.8641 13.0364 3.55786C13.0084 3.47919 13.0206 3.38687 13.0409 3.24836C13.4345 3.09451 13.8012 2.99322 14.168 2.89192C14.3749 2.89061 14.5818 2.8893 14.8571 2.90734C16.7255 2.92858 18.5255 2.93108 20.3255 2.92999C20.3953 2.92995 20.4651 2.89541 20.5348 2.87695C20.8294 2.87994 21.124 2.88292 21.4762 2.91412C21.706 2.96771 21.8774 2.99965 22.0504 3.01736C23.121 3.12695 24.1919 3.23334 25.2627 3.3408Z" fill="#29312F"/>
<path d="M27.2835 7.20071C27.54 7.1 27.6135 6.92704 27.5019 6.68484C27.2924 6.23022 27.0755 5.77888 26.8647 5.29492C27.139 5.74931 27.43 6.22579 27.6722 6.72479C27.7799 6.94647 27.7345 7.18714 27.3789 7.2597C27.3242 7.25507 27.3063 7.23805 27.2835 7.20071Z" fill="#809A92"/>
<path d="M14.1298 2.87891C13.8017 2.9945 13.4349 3.09579 13.039 3.21585C13.007 3.21243 13.0043 3.19026 12.9976 3.13481C13.3595 3.02256 13.7253 2.94358 14.1298 2.87891Z" fill="#809A92"/>
<path d="M20.5035 2.86087C20.4655 2.89529 20.3957 2.92983 20.3259 2.92987C18.5259 2.93096 16.7259 2.92846 14.8965 2.90626C14.965 2.86375 15.0631 2.82202 15.1611 2.82227C16.9313 2.8268 18.7016 2.83639 20.5035 2.86087Z" fill="#809A92"/>
<path d="M25.252 3.31379C24.1921 3.23346 23.1212 3.12706 22.0506 3.01747C21.8776 2.99977 21.7062 2.96783 21.5161 2.91602C22.5334 2.93266 23.5696 2.96226 24.6031 3.02978C24.8207 3.04399 25.0287 3.1974 25.252 3.31379Z" fill="#809A92"/>
<path d="M26.5545 4.74332C26.3278 4.49903 26.1024 4.22441 25.8765 3.91992C26.1025 4.16437 26.3291 4.43868 26.5545 4.74332Z" fill="#809A92"/>
<path d="M26.7318 5.00886C26.681 4.98676 26.6335 4.93827 26.5898 4.86328C26.6409 4.88534 26.688 4.93391 26.7318 5.00886Z" fill="#809A92"/>
</svg>
